<?xml version="1.0" encoding="UTF-8"?>
<svg version="1.1" viewBox="0 0 150.11 168.92" xmlns="http://www.w3.org/2000/svg">
<g transform="translate(-30.779 -21.374)" stroke="#000">
<path transform="matrix(.26458 0 0 .26458 -28.217 -38.656)" d="m780.32 701.21-273.49 155.41-273.67-155.11-0.17908-310.52 273.49-155.41 273.67 155.11z" fill="#ffb300" stroke-linecap="round" stroke-linejoin="bevel" stroke-width="20" style="paint-order:markers fill stroke"/>
<path transform="matrix(.26458 0 0 .26458 -28.217 -38.656)" d="m506.17 527.3c-24.074 13.455-48.147 26.911-72.221 40.366v59.902c24.291-9.5812 48.582-19.162 72.874-28.744 23.918 9.3922 47.836 18.784 71.754 28.176 0.27916-19.968 0.55842-39.935 0.83758-59.903-24.415-13.266-48.829-26.532-73.244-39.798z" fill="none" stroke-linecap="round" stroke-linejoin="bevel" stroke-width="20" style="paint-order:markers fill stroke"/>
<path transform="matrix(.26458 0 0 .26458 -28.217 -38.656)" d="m505.92 600.03c-23.988 9.4294-47.975 18.859-71.963 28.288v61.944c24.715-11.07 47.404-12.036 72.12-23.106 23.832 9.1435 49.689 8.1822 73.521 17.326-0.28228-18.959-0.56446-37.919-0.84674-56.878-24.277-9.1912-48.554-18.382-72.831-27.574z" fill="none" stroke-linecap="round" stroke-linejoin="bevel" stroke-width="20" style="paint-order:markers fill stroke"/>
<path transform="matrix(.26458 0 0 .26458 -28.217 -38.656)" d="m505.74 665.96c-24.549 9.9906-47.072 11.876-71.621 21.867-0.054 13.125-0.10807 26.251-0.16211 39.376 25.277 13.845 50.554 27.69 75.831 41.535 22.991-14.017 45.981-28.034 68.972-42.051 0.22208-14.05 0.44406-28.099 0.66614-42.149-23.887-8.8943-49.799-9.6837-73.686-18.578z" fill="none" stroke-linecap="square" stroke-width="20" style="paint-order:markers fill stroke"/>
<path transform="matrix(.26458 0 0 .26458 -28.217 -38.656)" d="m503.98 531.65c0.51438 23.503 1.0287 47.007 1.5431 70.51 0.52302 23.899 1.046 43.798 1.569 67.697 0.64044 29.264 1.2809 62.529 1.9213 91.793" fill="#d18538" stroke-width="20" style="paint-order:markers fill stroke"/>
<path d="m106.14 101.59-13.555-7.4757-0.30347-15.477 13.252-8.0013 13.555 7.4757 0.30347 15.477z" fill="none" stroke-linecap="square" stroke-width="5.2917" style="paint-order:markers fill stroke"/>
<path d="m165.63 97.865c-4.3124 3.0552-8.6248 6.1104-12.937 9.1656-9.9092-4.5201-19.818-9.0402-29.728-13.56 10.018-6.5933 20.036-13.187 30.055-19.78 5.4391 1.5742 10.878 3.1484 16.317 4.7225-1.2357 6.484-2.4715 12.968-3.7072 19.452z" fill="none" stroke-linecap="square" stroke-width="5.2917" style="paint-order:markers fill stroke"/>
<path d="m120.1 93.663c13.502 5.5418 27.003 11.084 40.505 16.625-5.908 3.2317-11.816 6.4634-17.724 9.6952-11.861-6.0134-23.721-12.027-35.582-18.04 4.2668-2.7601 8.5337-5.5202 12.801-8.2802z" fill="none" stroke-linecap="round" stroke-linejoin="bevel" stroke-width="5.2917" style="paint-order:markers fill stroke"/>
<path d="m46.033 97.865c4.3124 3.0552 8.6248 6.1104 12.937 9.1656 9.9092-4.5201 19.818-9.0401 29.727-13.56l-30.055-19.78c-5.4391 1.5742-10.878 3.1484-16.317 4.7225 1.2357 6.484 2.4715 12.968 3.7072 19.452z" fill="none" stroke-linecap="square" stroke-width="5.2917" style="paint-order:markers fill stroke"/>
<path d="m91.57 93.663c-13.502 5.5418-27.003 11.084-40.505 16.625 5.908 3.2317 11.816 6.4634 17.724 9.6952 11.861-6.0134 23.721-12.027 35.582-18.04-4.2668-2.7601-8.5337-5.5202-12.801-8.2802z" fill="none" stroke-linecap="round" stroke-linejoin="bevel" stroke-width="5.2917" style="paint-order:markers fill stroke"/>
<path d="m111.7 71.683c1.8022-3.8125 3.6045-7.6251 5.4067-11.438 2.6214-0.82231 5.2429-1.6446 7.8643-2.4669" fill="none" stroke-linecap="round" stroke-linejoin="bevel" stroke-width="5.2917" style="paint-order:markers fill stroke"/>
<path d="m99.965 71.683c-1.8022-3.8125-3.6045-7.6251-5.4067-11.438-2.6214-0.82231-5.2429-1.6446-7.8643-2.4669" fill="none" stroke-linecap="round" stroke-linejoin="bevel" stroke-width="5.2917" style="paint-order:markers fill stroke"/>
</g>
</svg>
