<?xml version="1.0" encoding="UTF-8" standalone="no"?>
<!-- Created with Inkscape (http://www.inkscape.org/) -->

<svg
   width="567.34033"
   height="638.43365"
   viewBox="0 0 150.1088 168.91891"
   version="1.1"
   id="svg1"
   xmlns="http://www.w3.org/2000/svg"
   xmlns:svg="http://www.w3.org/2000/svg">
  <defs
     id="defs1" />
  <g
     id="layer3"
     transform="translate(-30.778934,-21.373876)">
    <path
       style="fill:#ffb300;fill-opacity:1;stroke:#000000;stroke-width:20;stroke-linecap:round;stroke-linejoin:bevel;stroke-dasharray:none;stroke-opacity:1;paint-order:markers fill stroke"
       d="M 780.31639,701.2062 506.82528,856.61715 233.15511,701.51109 l -0.17908,-310.517 273.4911,-155.41093 273.67018,155.10605 z"
       id="path11"
       transform="matrix(0.26458333,0,0,0.26458333,-28.216807,-38.655662)" />
    <path
       style="fill:none;fill-opacity:1;stroke:#000000;stroke-width:20;stroke-linecap:round;stroke-linejoin:bevel;stroke-dasharray:none;stroke-opacity:1;paint-order:markers fill stroke"
       d="m 506.17407,527.29842 c -24.07363,13.45548 -48.14717,26.91097 -72.22078,40.36645 v 59.90171 c 24.29116,-9.58117 48.58234,-19.16234 72.87352,-28.7435 23.91789,9.39216 47.83589,18.78433 71.75378,28.17648 0.27916,-19.96775 0.55842,-39.93549 0.83758,-59.90324 -24.4147,-13.26597 -48.82941,-26.53193 -73.2441,-39.7979 z"
       id="path10"
       transform="matrix(0.26458333,0,0,0.26458333,-28.216807,-38.655662)" />
    <path
       style="fill:none;fill-opacity:1;stroke:#000000;stroke-width:20;stroke-linecap:round;stroke-linejoin:bevel;stroke-dasharray:none;stroke-opacity:1;paint-order:markers fill stroke"
       d="m 505.91614,600.0269 c -23.98765,9.42936 -47.97521,18.8587 -71.96285,28.28806 v 61.94382 c 24.71529,-11.07018 47.40437,-12.03551 72.11968,-23.10569 23.83151,9.14353 49.68925,8.18223 73.52077,17.32576 -0.28228,-18.95941 -0.56446,-37.91882 -0.84674,-56.87822 -24.27699,-9.19125 -48.55387,-18.38249 -72.83086,-27.57373 z"
       id="path9"
       transform="matrix(0.26458333,0,0,0.26458333,-28.216807,-38.655662)" />
    <path
       style="fill:none;fill-opacity:1;stroke:#000000;stroke-width:20;stroke-linecap:square;stroke-linejoin:miter;stroke-dasharray:none;stroke-opacity:1;paint-order:markers fill stroke"
       d="m 505.73643,665.95931 c -24.5491,9.99057 -47.07198,11.87631 -71.62103,21.86687 -0.054,13.12545 -0.10807,26.2509 -0.16211,39.37634 25.27693,13.8451 50.55376,27.6902 75.83071,41.53531 22.99072,-14.01717 45.98144,-28.03432 68.97216,-42.05149 0.22208,-14.04968 0.44406,-28.09937 0.66614,-42.14905 -23.88659,-8.89427 -49.79929,-9.6837 -73.68587,-18.57798 z"
       id="path8"
       transform="matrix(0.26458333,0,0,0.26458333,-28.216807,-38.655662)" />
    <path
       style="fill:#d18538;fill-opacity:1;stroke:#000000;stroke-width:20;stroke-linecap:butt;stroke-linejoin:miter;stroke-dasharray:none;stroke-opacity:1;paint-order:markers fill stroke"
       d="m 503.98429,531.64858 c 0.51438,23.50331 1.02874,47.00661 1.54311,70.50992 0.52302,23.89884 1.04603,43.79769 1.56905,67.69653 0.64044,29.26429 1.28089,62.52858 1.92134,91.79287"
       id="path7"
       transform="matrix(0.26458333,0,0,0.26458333,-28.216807,-38.655662)" />
    <path
       style="fill:none;fill-opacity:1;stroke:#000000;stroke-width:5.29167;stroke-linecap:square;stroke-linejoin:miter;stroke-dasharray:none;stroke-opacity:1;paint-order:markers fill stroke"
       d="m 106.1368,101.59219 -13.555143,-7.475658 -0.303472,-15.476926 13.251675,-8.001275 13.55515,7.475651 0.30347,15.476926 z"
       id="path6" />
    <path
       style="fill:none;fill-opacity:1;stroke:#000000;stroke-width:5.29167;stroke-linecap:square;stroke-linejoin:miter;stroke-dasharray:none;stroke-opacity:1;paint-order:markers fill stroke"
       d="m 165.63379,97.864616 c -4.3124,3.055214 -8.6248,6.110424 -12.9372,9.165634 -9.90917,-4.52008 -19.81833,-9.040153 -29.7275,-13.560234 10.01824,-6.593316 20.03647,-13.186629 30.0547,-19.779945 5.43908,1.574173 10.87815,3.148351 16.31723,4.722527 -1.23574,6.484008 -2.47149,12.968012 -3.70723,19.452018 z"
       id="path5" />
    <path
       style="fill:none;fill-opacity:1;stroke:#000000;stroke-width:5.29167;stroke-linecap:round;stroke-linejoin:bevel;stroke-dasharray:none;stroke-opacity:1;paint-order:markers fill stroke"
       d="m 120.09656,93.66308 c 13.50165,5.541769 27.00331,11.08354 40.50497,16.6253 -5.90795,3.23172 -11.8159,6.46345 -17.72385,9.69517 -11.86056,-6.01341 -23.72113,-12.02682 -35.58168,-18.04023 4.26685,-2.760076 8.5337,-5.52016 12.80056,-8.28024 z"
       id="path4" />
    <path
       style="fill:none;fill-opacity:1;stroke:#000000;stroke-width:5.29167;stroke-linecap:square;stroke-linejoin:miter;stroke-dasharray:none;stroke-opacity:1;paint-order:markers fill stroke"
       d="m 46.032874,97.864613 c 4.312404,3.055207 8.624803,6.110417 12.937207,9.165627 9.909164,-4.52007 19.818329,-9.040148 29.727493,-13.560226 L 58.642876,73.690068 c -5.439077,1.574173 -10.87815,3.148351 -16.317227,4.722527 1.235739,6.484006 2.471483,12.968012 3.707225,19.452018 z"
       id="path3" />
    <path
       style="fill:none;fill-opacity:1;stroke:#000000;stroke-width:5.29167;stroke-linecap:round;stroke-linejoin:bevel;stroke-dasharray:none;stroke-opacity:1;paint-order:markers fill stroke"
       d="m 91.57011,93.663077 c -13.501656,5.54177 -27.003314,11.083533 -40.504972,16.625303 5.907953,3.23172 11.815903,6.46344 17.723855,9.69516 11.860557,-6.0134 23.721118,-12.02681 35.581677,-18.04022 -4.26685,-2.760079 -8.533707,-5.520162 -12.80056,-8.280243 z"
       id="path2" />
    <path
       style="fill:none;fill-opacity:1;stroke:#000000;stroke-width:5.29167;stroke-linecap:round;stroke-linejoin:bevel;stroke-dasharray:none;stroke-opacity:1;paint-order:markers fill stroke"
       d="m 111.7017,71.682781 c 1.80223,-3.812537 3.60446,-7.625072 5.40669,-11.437609 2.62143,-0.822312 5.24286,-1.644621 7.86429,-2.466933"
       id="path1" />
    <path
       style="fill:none;fill-opacity:1;stroke:#000000;stroke-width:5.29167;stroke-linecap:round;stroke-linejoin:bevel;stroke-dasharray:none;stroke-opacity:1;paint-order:markers fill stroke"
       d="M 99.964969,71.682781 C 98.162736,67.870244 96.360505,64.057709 94.558272,60.245172 91.936844,59.42286 89.315418,58.600551 86.69399,57.778239"
       id="path8-1-6" />
  </g>
</svg>
